<?xml version="1.0" encoding="UTF-8" standalone="no"?>
<!-- Created with Inkscape (http://www.inkscape.org/) -->

<svg
   xmlns:dc="http://purl.org/dc/elements/1.1/"
   xmlns:cc="http://creativecommons.org/ns#"
   xmlns:rdf="http://www.w3.org/1999/02/22-rdf-syntax-ns#"
   xmlns:svg="http://www.w3.org/2000/svg"
   xmlns="http://www.w3.org/2000/svg"
   xmlns:sodipodi="http://sodipodi.sourceforge.net/DTD/sodipodi-0.dtd"
   xmlns:inkscape="http://www.inkscape.org/namespaces/inkscape"
   width="116.5859mm"
   height="28.330086mm"
   viewBox="0 0 116.5859 28.330086"
   version="1.1"
   id="svg8"
   sodipodi:docname="Chickweed.svg"
   inkscape:version="0.92.4 (5da689c313, 2019-01-14)">
  <defs
     id="defs2" />
  <sodipodi:namedview
     id="base"
     pagecolor="#ffffff"
     bordercolor="#666666"
     borderopacity="1.0"
     inkscape:pageopacity="0.0"
     inkscape:pageshadow="2"
     inkscape:zoom="1.4"
     inkscape:cx="247.49036"
     inkscape:cy="30.590334"
     inkscape:document-units="mm"
     inkscape:current-layer="layer1"
     showgrid="false"
     inkscape:snap-page="true"
     inkscape:window-width="1920"
     inkscape:window-height="1027"
     inkscape:window-x="-8"
     inkscape:window-y="537"
     inkscape:window-maximized="1" />
  <metadata
     id="metadata5">
    <rdf:RDF>
      <cc:Work
         rdf:about="">
        <dc:format>image/svg+xml</dc:format>
        <dc:type
           rdf:resource="http://purl.org/dc/dcmitype/StillImage" />
        <dc:title></dc:title>
      </cc:Work>
    </rdf:RDF>
  </metadata>
  <g
     inkscape:label="レイヤー 1"
     inkscape:groupmode="layer"
     id="layer1"
     transform="translate(0.230818,0.064896)">
    <g
       id="g934"
       transform="translate(-11.339286,-46.68846)">
      <g
         id="text817"
         style="font-style:normal;font-variant:normal;font-weight:normal;font-stretch:normal;font-size:25.39999962px;line-height:1.25;font-family:CornerAL;-inkscape-font-specification:'CornerAL, Normal';font-variant-ligatures:normal;font-variant-caps:normal;font-variant-numeric:normal;text-align:start;letter-spacing:0px;word-spacing:0px;writing-mode:lr-tb;text-anchor:start;fill:#000000;fill-opacity:1;stroke:none;stroke-width:0.26458332"
         aria-label="Chickweed">
        <path
           id="path882"
           style="font-style:normal;font-variant:normal;font-weight:normal;font-stretch:normal;font-size:22.57777786px;font-family:CornerAL;-inkscape-font-specification:'CornerAL, Normal';font-variant-ligatures:normal;font-variant-caps:normal;font-variant-numeric:normal;font-feature-settings:normal;text-align:start;writing-mode:lr-tb;text-anchor:start;stroke-width:0.26458332"
           d="m 22.487668,63.692364 q 0.474133,0 0.474133,-0.451556 v -1.354666 q 0,-0.451556 -0.474133,-0.451556 h -6.028267 q -0.383822,0 -0.654755,-0.248356 l -2.009423,-1.873955 q -0.316089,-0.293511 -0.316089,-0.722489 v -6.863645 q 0,-0.428977 0.316089,-0.722488 l 2.032,-1.896534 q 0.270934,-0.248355 0.654756,-0.248355 h 6.005689 q 0.474133,0 0.474133,-0.451556 v -1.332089 q 0,-0.451555 -0.474133,-0.451555 H 16.36909 q -1.241778,0 -2.099733,0.8128 l -2.144889,1.986844 q -1.016,0.925689 -1.016,2.302933 v 6.886223 q 0,1.377244 1.016,2.302933 l 2.167466,1.964267 q 0.880534,0.8128 2.077156,0.8128 z"
           inkscape:connector-curvature="0" />
        <path
           id="path884"
           style="font-style:normal;font-variant:normal;font-weight:normal;font-stretch:normal;font-size:22.57777786px;font-family:CornerAL;-inkscape-font-specification:'CornerAL, Normal';font-variant-ligatures:normal;font-variant-caps:normal;font-variant-numeric:normal;font-feature-settings:normal;text-align:start;writing-mode:lr-tb;text-anchor:start;stroke-width:0.26458332"
           d="m 35.485765,55.609519 q 0,-1.106311 -0.857956,-1.896533 l -1.761066,-1.648178 q -0.722489,-0.654755 -1.715911,-0.654755 h -4.041423 v -4.380089 q 0,-0.4064 -0.4064,-0.4064 h -1.286933 q -0.4064,0 -0.4064,0.4064 v 16.256 q 0,0.4064 0.4064,0.4064 h 1.309511 q 0.4064,0 0.4064,-0.4064 V 53.87103 q 0,-0.451555 0.451556,-0.451555 h 3.4544 q 0.225777,0 0.383822,0.158044 l 1.738489,1.603022 q 0.2032,0.180623 0.2032,0.428978 v 7.676445 q 0,0.4064 0.4064,0.4064 h 1.309511 q 0.4064,0 0.4064,-0.4064 z"
           inkscape:connector-curvature="0" />
        <path
           id="path886"
           style="font-style:normal;font-variant:normal;font-weight:normal;font-stretch:normal;font-size:22.57777786px;font-family:CornerAL;-inkscape-font-specification:'CornerAL, Normal';font-variant-ligatures:normal;font-variant-caps:normal;font-variant-numeric:normal;font-feature-settings:normal;text-align:start;writing-mode:lr-tb;text-anchor:start;stroke-width:0.26458332"
           d="m 40.09657,63.285964 q 0,0.4064 -0.428977,0.4064 h -1.286934 q -0.4064,0 -0.4064,-0.4064 V 51.816453 q 0,-0.4064 0.4064,-0.4064 h 1.286934 q 0.428977,0 0.428977,0.4064 z m 0,-14.224 q 0,0.4064 -0.428977,0.4064 h -1.286934 q -0.4064,0 -0.4064,-0.4064 v -2.032 q 0,-0.4064 0.4064,-0.4064 h 1.286934 q 0.428977,0 0.428977,0.4064 z"
           inkscape:connector-curvature="0" />
        <path
           id="path888"
           style="font-style:normal;font-variant:normal;font-weight:normal;font-stretch:normal;font-size:22.57777786px;font-family:CornerAL;-inkscape-font-specification:'CornerAL, Normal';font-variant-ligatures:normal;font-variant-caps:normal;font-variant-numeric:normal;font-feature-settings:normal;text-align:start;writing-mode:lr-tb;text-anchor:start;stroke-width:0.26458332"
           d="m 46.708332,51.410053 q -1.016,0 -1.738489,0.654755 l -1.761067,1.648178 q -0.835378,0.790222 -0.835378,1.896533 v 3.883378 q 0,1.128889 0.835378,1.896533 l 1.761067,1.648178 q 0.722489,0.654756 1.738489,0.654756 h 4.741333 q 0.4064,0 0.4064,-0.4064 v -1.196622 q 0,-0.4064 -0.4064,-0.4064 h -4.628444 q -0.248356,0 -0.4064,-0.158045 L 44.69891,59.921875 q -0.2032,-0.158045 -0.2032,-0.428978 v -3.883378 q 0,-0.248355 0.2032,-0.428978 l 1.715911,-1.603022 q 0.158044,-0.158044 0.4064,-0.158044 h 4.628444 q 0.4064,0 0.4064,-0.383822 v -1.2192 q 0,-0.4064 -0.4064,-0.4064 z"
           inkscape:connector-curvature="0" />
        <path
           id="path890"
           style="font-style:normal;font-variant:normal;font-weight:normal;font-stretch:normal;font-size:22.57777786px;font-family:CornerAL;-inkscape-font-specification:'CornerAL, Normal';font-variant-ligatures:normal;font-variant-caps:normal;font-variant-numeric:normal;font-feature-settings:normal;text-align:start;writing-mode:lr-tb;text-anchor:start;stroke-width:0.26458332"
           d="m 64.58993,52.109964 v -1.377245 q 0,-0.4064 -0.4064,-0.4064 h -1.309511 q -0.4064,0 -0.4064,0.4064 v 1.377245 q 0,0.248355 -0.2032,0.428977 l -1.715911,1.603023 q -0.180623,0.158044 -0.4064,0.158044 h -3.4544 q -0.451556,0 -0.451556,-0.451555 v -6.818489 q 0,-0.4064 -0.428978,-0.4064 h -1.286933 q -0.4064,0 -0.4064,0.4064 v 16.256 q 0,0.4064 0.4064,0.4064 h 1.309511 q 0.4064,0 0.4064,-0.4064 v -6.524978 q 0,-0.451556 0.451556,-0.451556 h 3.4544 q 0.225777,0 0.383822,0.158045 l 1.738489,1.603022 q 0.2032,0.180622 0.2032,0.428978 v 4.786489 q 0,0.4064 0.4064,0.4064 h 1.309511 q 0.4064,0 0.4064,-0.4064 v -4.786489 q 0,-1.106311 -0.857956,-1.896534 l -1.399822,-1.309511 1.4224,-1.286933 q 0.835378,-0.790222 0.835378,-1.896533 z"
           inkscape:connector-curvature="0" />
        <path
           id="path892"
           style="font-style:normal;font-variant:normal;font-weight:normal;font-stretch:normal;font-size:22.57777786px;font-family:CornerAL;-inkscape-font-specification:'CornerAL, Normal';font-variant-ligatures:normal;font-variant-caps:normal;font-variant-numeric:normal;font-feature-settings:normal;text-align:start;writing-mode:lr-tb;text-anchor:start;stroke-width:0.26458332"
           d="m 82.228114,61.38943 -1.761066,1.648178 q -0.722489,0.654756 -1.715911,0.654756 h -0.519289 q -1.016,0 -1.715911,-0.654756 L 74.95807,61.59263 73.422781,63.037608 q -0.722489,0.654756 -1.738489,0.654756 h -0.496711 q -1.016,0 -1.738489,-0.654756 L 67.688025,61.38943 q -0.835377,-0.767644 -0.835377,-1.896533 v -7.676444 q 0,-0.4064 0.4064,-0.4064 h 1.309511 q 0.4064,0 0.4064,0.4064 v 7.676444 q 0,0.248356 0.180622,0.428978 l 1.738489,1.603022 q 0.158044,0.158045 0.4064,0.158045 h 0.270933 q 0.248356,0 0.4064,-0.158045 l 1.738489,-1.603022 q 0.180622,-0.180622 0.180622,-0.428978 v -7.676444 q 0,-0.4064 0.4064,-0.4064 h 1.309511 q 0.4064,0 0.4064,0.4064 v 7.676444 q 0,0.248356 0.2032,0.428978 l 1.715912,1.603022 q 0.180622,0.158045 0.4064,0.158045 h 0.293511 q 0.225777,0 0.383822,-0.158045 l 1.738489,-1.603022 q 0.2032,-0.180622 0.2032,-0.428978 v -7.676444 q 0,-0.4064 0.4064,-0.4064 h 1.286933 q 0.428978,0 0.428978,0.4064 v 7.676444 q 0,1.106311 -0.857956,1.896533 z"
           inkscape:connector-curvature="0" />
        <path
           id="path894"
           style="font-style:normal;font-variant:normal;font-weight:normal;font-stretch:normal;font-size:22.57777786px;font-family:CornerAL;-inkscape-font-specification:'CornerAL, Normal';font-variant-ligatures:normal;font-variant-caps:normal;font-variant-numeric:normal;font-feature-settings:normal;text-align:start;writing-mode:lr-tb;text-anchor:start;stroke-width:0.26458332"
           d="m 94.179874,58.567208 q 0.4064,0 0.4064,-0.4064 v -1.196622 q 0,-0.4064 -0.4064,-0.4064 h -6.615288 q -0.338667,0 -0.338667,-0.338667 v -0.6096 q 0,-0.248355 0.2032,-0.428978 l 1.715911,-1.603022 q 0.158044,-0.158044 0.4064,-0.158044 h 4.628444 q 0.4064,0 0.4064,-0.383822 v -1.2192 q 0,-0.4064 -0.4064,-0.4064 h -4.741333 q -1.016,0 -1.738489,0.654755 l -1.761066,1.648178 q -0.835378,0.790222 -0.835378,1.896533 v 3.883378 q 0,1.128889 0.835378,1.896533 l 1.761066,1.648178 q 0.722489,0.654756 1.738489,0.654756 h 4.741333 q 0.4064,0 0.4064,-0.4064 v -1.196622 q 0,-0.4064 -0.4064,-0.4064 H 89.55143 q -0.248356,0 -0.4064,-0.158045 l -1.715911,-1.603022 q -0.2032,-0.180622 -0.2032,-0.428978 v -0.587022 q 0,-0.338667 0.338667,-0.338667 z"
           inkscape:connector-curvature="0" />
        <path
           id="path896"
           style="font-style:normal;font-variant:normal;font-weight:normal;font-stretch:normal;font-size:22.57777786px;font-family:CornerAL;-inkscape-font-specification:'CornerAL, Normal';font-variant-ligatures:normal;font-variant-caps:normal;font-variant-numeric:normal;font-feature-settings:normal;text-align:start;writing-mode:lr-tb;text-anchor:start;stroke-width:0.26458332"
           d="m 105.24828,58.567208 q 0.4064,0 0.4064,-0.4064 v -1.196622 q 0,-0.4064 -0.4064,-0.4064 h -6.615289 q -0.338667,0 -0.338667,-0.338667 v -0.6096 q 0,-0.248355 0.2032,-0.428978 l 1.715916,-1.603022 q 0.15804,-0.158044 0.4064,-0.158044 h 4.62844 q 0.4064,0 0.4064,-0.383822 v -1.2192 q 0,-0.4064 -0.4064,-0.4064 h -4.74133 q -1.016004,0 -1.738493,0.654755 l -1.761066,1.648178 q -0.835378,0.790222 -0.835378,1.896533 v 3.883378 q 0,1.128889 0.835378,1.896533 l 1.761066,1.648178 q 0.722489,0.654756 1.738493,0.654756 h 4.74133 q 0.4064,0 0.4064,-0.4064 v -1.196622 q 0,-0.4064 -0.4064,-0.4064 h -4.62844 q -0.24836,0 -0.4064,-0.158045 l -1.715916,-1.603022 q -0.2032,-0.180622 -0.2032,-0.428978 v -0.587022 q 0,-0.338667 0.338667,-0.338667 z"
           inkscape:connector-curvature="0" />
        <path
           id="path898"
           style="font-style:normal;font-variant:normal;font-weight:normal;font-stretch:normal;font-size:22.57777786px;font-family:CornerAL;-inkscape-font-specification:'CornerAL, Normal';font-variant-ligatures:normal;font-variant-caps:normal;font-variant-numeric:normal;font-feature-settings:normal;text-align:start;writing-mode:lr-tb;text-anchor:start;stroke-width:0.26458332"
           d="m 107.24041,55.609519 v 3.883378 q 0,1.128889 0.83538,1.896533 l 1.76106,1.648178 q 0.72249,0.654756 1.73849,0.654756 h 5.73476 q 0.4064,0 0.4064,-0.4064 v -16.256 q 0,-0.4064 -0.4064,-0.4064 h -1.30951 q -0.4064,0 -0.4064,0.4064 v 4.380089 h -4.01885 q -1.016,0 -1.73849,0.654755 l -1.76106,1.648178 q -0.83538,0.790222 -0.83538,1.896533 z m 2.12231,0 q 0,-0.248355 0.2032,-0.428978 l 1.71591,-1.603022 q 0.18062,-0.158044 0.4064,-0.158044 h 3.4544 q 0.45156,0 0.45156,0.451555 v 7.360356 q 0,0.451556 -0.45156,0.451556 h -3.4544 q -0.22578,0 -0.4064,-0.158045 l -1.71591,-1.603022 q -0.2032,-0.158045 -0.2032,-0.428978 z"
           inkscape:connector-curvature="0" />
      </g>
      <g
         id="text821"
         style="font-style:normal;font-variant:normal;font-weight:normal;font-stretch:normal;font-size:25.39999962px;line-height:1.25;font-family:CornerAL;-inkscape-font-specification:'CornerAL, Normal';font-variant-ligatures:normal;font-variant-caps:normal;font-variant-numeric:normal;text-align:start;letter-spacing:0px;word-spacing:0px;writing-mode:lr-tb;text-anchor:start;fill:#000000;fill-opacity:1;stroke:none;stroke-width:0.26458332"
         aria-label="Powered by">
        <path
           id="path863"
           style="font-style:normal;font-variant:normal;font-weight:normal;font-stretch:normal;font-size:8.46666622px;font-family:CornerAL;-inkscape-font-specification:'CornerAL, Normal';font-variant-ligatures:normal;font-variant-caps:normal;font-variant-numeric:normal;font-feature-settings:normal;text-align:start;writing-mode:lr-tb;text-anchor:start;stroke-width:0.26458332"
           d="m 15.666181,67.536854 -0.8128,-0.745067 q -0.3302,-0.3048 -0.778933,-0.3048 h -2.7178 q -0.169333,0 -0.169333,0.1778 v 6.053667 q 0,0.169333 0.169333,0.169333 h 0.550333 q 0.169334,0 0.169334,-0.169333 v -2.065867 q 0,-0.1778 0.169333,-0.1778 h 1.8288 q 0.465666,0 0.7874,-0.3048 l 0.804333,-0.745067 q 0.381,-0.347133 0.381,-0.872066 v -0.1524 q 0,-0.516467 -0.381,-0.8636 z m -0.508,1.0414 q 0,0.160866 -0.118533,0.270933 l -0.753534,0.702733 q -0.1016,0.08467 -0.245533,0.08467 h -1.794933 q -0.169333,0 -0.169333,-0.169333 v -1.9558 q 0,-0.1778 0.169333,-0.1778 h 1.794933 q 0.143933,0 0.245533,0.09313 l 0.753534,0.702733 q 0.118533,0.110067 0.118533,0.270934 z"
           inkscape:connector-curvature="0" />
        <path
           id="path865"
           style="font-style:normal;font-variant:normal;font-weight:normal;font-stretch:normal;font-size:8.46666622px;font-family:CornerAL;-inkscape-font-specification:'CornerAL, Normal';font-variant-ligatures:normal;font-variant-caps:normal;font-variant-numeric:normal;font-feature-settings:normal;text-align:start;writing-mode:lr-tb;text-anchor:start;stroke-width:0.26458332"
           d="m 20.338325,69.14552 -0.6604,-0.618066 Q 19.406992,68.28192 19.025992,68.28192 h -0.677333 q -0.381,0 -0.651933,0.245534 l -0.6604,0.618066 q -0.313267,0.287867 -0.313267,0.7112 v 1.456267 q 0,0.414867 0.313267,0.7112 l 0.6604,0.618067 q 0.270933,0.245533 0.651933,0.245533 h 0.677333 q 0.381,0 0.651933,-0.245533 l 0.6604,-0.618067 q 0.313267,-0.296333 0.313267,-0.7112 V 69.85672 q 0,-0.423333 -0.313267,-0.7112 z m -0.4826,2.167467 q 0,0.09313 -0.06773,0.160867 l -0.651933,0.601133 q -0.06773,0.05927 -0.1524,0.05927 h -0.592667 q -0.08467,0 -0.1524,-0.05927 l -0.643466,-0.601133 q -0.0762,-0.06773 -0.0762,-0.160867 V 69.85672 q 0,-0.1016 0.0762,-0.160866 l 0.643466,-0.601134 q 0.06773,-0.05927 0.1524,-0.05927 h 0.592667 q 0.08467,0 0.1524,0.05927 l 0.651933,0.601134 q 0.06773,0.05927 0.06773,0.160866 z"
           inkscape:connector-curvature="0" />
        <path
           id="path867"
           style="font-style:normal;font-variant:normal;font-weight:normal;font-stretch:normal;font-size:8.46666622px;font-family:CornerAL;-inkscape-font-specification:'CornerAL, Normal';font-variant-ligatures:normal;font-variant-caps:normal;font-variant-numeric:normal;font-feature-settings:normal;text-align:start;writing-mode:lr-tb;text-anchor:start;stroke-width:0.26458332"
           d="m 27.187197,72.024187 -0.6604,0.618067 q -0.270933,0.245533 -0.643467,0.245533 h -0.194733 q -0.381,0 -0.643467,-0.245533 l -0.584199,-0.541867 -0.575734,0.541867 q -0.270933,0.245533 -0.651933,0.245533 h -0.186267 q -0.381,0 -0.651933,-0.245533 l -0.6604,-0.618067 q -0.313267,-0.287867 -0.313267,-0.7112 V 68.43432 q 0,-0.1524 0.1524,-0.1524 h 0.491067 q 0.1524,0 0.1524,0.1524 v 2.878667 q 0,0.09313 0.06773,0.160867 l 0.651934,0.601133 q 0.05927,0.05927 0.1524,0.05927 h 0.1016 q 0.09313,0 0.1524,-0.05927 l 0.651933,-0.601133 q 0.06773,-0.06773 0.06773,-0.160867 V 68.43432 q 0,-0.1524 0.1524,-0.1524 h 0.491067 q 0.1524,0 0.1524,0.1524 v 2.878667 q 0,0.09313 0.0762,0.160867 l 0.643466,0.601133 q 0.06773,0.05927 0.1524,0.05927 h 0.110067 q 0.08467,0 0.143933,-0.05927 l 0.651934,-0.601133 q 0.0762,-0.06773 0.0762,-0.160867 V 68.43432 q 0,-0.1524 0.1524,-0.1524 h 0.4826 q 0.160866,0 0.160866,0.1524 v 2.878667 q 0,0.414867 -0.321733,0.7112 z"
           inkscape:connector-curvature="0" />
        <path
           id="path869"
           style="font-style:normal;font-variant:normal;font-weight:normal;font-stretch:normal;font-size:8.46666622px;font-family:CornerAL;-inkscape-font-specification:'CornerAL, Normal';font-variant-ligatures:normal;font-variant-caps:normal;font-variant-numeric:normal;font-feature-settings:normal;text-align:start;writing-mode:lr-tb;text-anchor:start;stroke-width:0.26458332"
           d="m 31.669105,70.965854 q 0.1524,0 0.1524,-0.1524 V 70.36472 q 0,-0.1524 -0.1524,-0.1524 h -2.480733 q -0.127,0 -0.127,-0.127 v -0.2286 q 0,-0.09313 0.0762,-0.160866 l 0.643467,-0.601134 q 0.05927,-0.05927 0.1524,-0.05927 h 1.735666 q 0.1524,0 0.1524,-0.143934 v -0.4572 q 0,-0.1524 -0.1524,-0.1524 h -1.778 q -0.381,0 -0.651933,0.245534 l -0.6604,0.618066 q -0.313266,0.296334 -0.313266,0.7112 v 1.456267 q 0,0.423333 0.313266,0.7112 l 0.6604,0.618067 q 0.270933,0.245533 0.651933,0.245533 h 1.778 q 0.1524,0 0.1524,-0.1524 V 72.28665 q 0,-0.1524 -0.1524,-0.1524 h -1.735666 q -0.09313,0 -0.1524,-0.05927 l -0.643467,-0.601133 q -0.0762,-0.06773 -0.0762,-0.160867 v -0.220133 q 0,-0.127 0.127,-0.127 z"
           inkscape:connector-curvature="0" />
        <path
           id="path871"
           style="font-style:normal;font-variant:normal;font-weight:normal;font-stretch:normal;font-size:8.46666622px;font-family:CornerAL;-inkscape-font-specification:'CornerAL, Normal';font-variant-ligatures:normal;font-variant-caps:normal;font-variant-numeric:normal;font-feature-settings:normal;text-align:start;writing-mode:lr-tb;text-anchor:start;stroke-width:0.26458332"
           d="m 35.032357,68.28192 h -0.905933 q -0.381,0 -0.651933,0.245534 l -0.1778,0.169333 V 68.43432 q 0,-0.1524 -0.160867,-0.1524 h -0.4826 q -0.1524,0 -0.1524,0.1524 v 4.301067 q 0,0.1524 0.1524,0.1524 h 0.4826 q 0.160867,0 0.160867,-0.1524 V 69.85672 q 0,-0.1016 0.06773,-0.160866 l 0.651933,-0.601134 q 0.05927,-0.05927 0.143934,-0.05927 h 0.872066 q 0.1524,0 0.1524,-0.1524 v -0.44873 q 0,-0.1524 -0.1524,-0.1524 z"
           inkscape:connector-curvature="0" />
        <path
           id="path873"
           style="font-style:normal;font-variant:normal;font-weight:normal;font-stretch:normal;font-size:8.46666622px;font-family:CornerAL;-inkscape-font-specification:'CornerAL, Normal';font-variant-ligatures:normal;font-variant-caps:normal;font-variant-numeric:normal;font-feature-settings:normal;text-align:start;writing-mode:lr-tb;text-anchor:start;stroke-width:0.26458332"
           d="m 39.176658,70.965854 q 0.1524,0 0.1524,-0.1524 V 70.36472 q 0,-0.1524 -0.1524,-0.1524 h -2.480733 q -0.127,0 -0.127,-0.127 v -0.2286 q 0,-0.09313 0.0762,-0.160866 l 0.643467,-0.601134 q 0.05927,-0.05927 0.1524,-0.05927 h 1.735666 q 0.1524,0 0.1524,-0.143934 v -0.4572 q 0,-0.1524 -0.1524,-0.1524 h -1.777999 q -0.381,0 -0.651934,0.245534 l -0.6604,0.618066 q -0.313266,0.296334 -0.313266,0.7112 v 1.456267 q 0,0.423333 0.313266,0.7112 l 0.6604,0.618067 q 0.270934,0.245533 0.651934,0.245533 h 1.777999 q 0.1524,0 0.1524,-0.1524 V 72.28665 q 0,-0.1524 -0.1524,-0.1524 h -1.735666 q -0.09313,0 -0.1524,-0.05927 l -0.643467,-0.601133 q -0.0762,-0.06773 -0.0762,-0.160867 v -0.220133 q 0,-0.127 0.127,-0.127 z"
           inkscape:connector-curvature="0" />
        <path
           id="path875"
           style="font-style:normal;font-variant:normal;font-weight:normal;font-stretch:normal;font-size:8.46666622px;font-family:CornerAL;-inkscape-font-specification:'CornerAL, Normal';font-variant-ligatures:normal;font-variant-caps:normal;font-variant-numeric:normal;font-feature-settings:normal;text-align:start;writing-mode:lr-tb;text-anchor:start;stroke-width:0.26458332"
           d="m 39.923709,69.85672 v 1.456267 q 0,0.423333 0.313266,0.7112 l 0.6604,0.618067 q 0.270934,0.245533 0.651934,0.245533 h 2.150533 q 0.1524,0 0.1524,-0.1524 v -6.096 q 0,-0.1524 -0.1524,-0.1524 h -0.491067 q -0.1524,0 -0.1524,0.1524 v 1.642533 h -1.507066 q -0.381,0 -0.651934,0.245534 l -0.6604,0.618066 q -0.313266,0.296334 -0.313266,0.7112 z m 0.795866,0 q 0,-0.09313 0.0762,-0.160866 l 0.643467,-0.601134 q 0.06773,-0.05927 0.1524,-0.05927 h 1.2954 q 0.169333,0 0.169333,0.169333 v 2.760133 q 0,0.169334 -0.169333,0.169334 h -1.2954 q -0.08467,0 -0.1524,-0.05927 l -0.643467,-0.601133 q -0.0762,-0.05927 -0.0762,-0.160867 z"
           inkscape:connector-curvature="0" />
        <path
           id="path877"
           style="font-style:normal;font-variant:normal;font-weight:normal;font-stretch:normal;font-size:8.46666622px;font-family:CornerAL;-inkscape-font-specification:'CornerAL, Normal';font-variant-ligatures:normal;font-variant-caps:normal;font-variant-numeric:normal;font-feature-settings:normal;text-align:start;writing-mode:lr-tb;text-anchor:start;stroke-width:0.26458332"
           d="m 51.868852,69.14552 -0.6604,-0.618066 Q 50.945985,68.28192 50.564985,68.28192 h -1.507066 v -1.642533 q 0,-0.1524 -0.160867,-0.1524 h -0.4826 q -0.1524,0 -0.1524,0.1524 v 6.096 q 0,0.1524 0.1524,0.1524 h 2.150533 q 0.381,0 0.643467,-0.245533 l 0.6604,-0.618067 q 0.321733,-0.287867 0.321733,-0.7112 V 69.85672 q 0,-0.414866 -0.321733,-0.7112 z m -0.474133,2.167467 q 0,0.1016 -0.0762,0.160867 l -0.643467,0.601133 q -0.06773,0.05927 -0.1524,0.05927 h -1.2954 q -0.169333,0 -0.169333,-0.169334 V 69.20479 q 0,-0.169333 0.169333,-0.169333 h 1.2954 q 0.08467,0 0.1524,0.05927 l 0.643467,0.601134 q 0.0762,0.06773 0.0762,0.160866 z"
           inkscape:connector-curvature="0" />
        <path
           id="path879"
           style="font-style:normal;font-variant:normal;font-weight:normal;font-stretch:normal;font-size:8.46666622px;font-family:CornerAL;-inkscape-font-specification:'CornerAL, Normal';font-variant-ligatures:normal;font-variant-caps:normal;font-variant-numeric:normal;font-feature-settings:normal;text-align:start;writing-mode:lr-tb;text-anchor:start;stroke-width:0.26458332"
           d="m 56.884956,68.43432 q 0,-0.1524 -0.1524,-0.1524 h -0.491067 q -0.1524,0 -0.1524,0.1524 v 3.5306 q 0,0.1778 -0.169333,0.1778 h -1.2954 q -0.08467,0 -0.1524,-0.05927 L 53.82849,71.48232 q -0.0762,-0.06773 -0.0762,-0.160866 V 68.43432 q 0,-0.1524 -0.1524,-0.1524 h -0.491067 q -0.1524,0 -0.1524,0.1524 v 2.887134 q 0,0.414866 0.313267,0.7112 l 0.668866,0.6096 q 0.262467,0.254 0.643467,0.254 h 1.337733 q 0.169333,0 0.169333,0.169333 v 0.3048 q 0,0.1016 -0.0762,0.169333 l -0.643466,0.592667 q -0.06773,0.06773 -0.1524,0.06773 H 53.90469 q -0.1524,0 -0.1524,0.1524 v 0.4572 q 0,0.143933 0.1524,0.143933 h 1.354666 q 0.372533,0 0.643467,-0.254 l 0.668866,-0.618066 q 0.313267,-0.287867 0.313267,-0.7112 z"
           inkscape:connector-curvature="0" />
      </g>
      <g
         id="text825"
         style="font-style:normal;font-variant:normal;font-weight:bold;font-stretch:normal;font-size:8.46666622px;line-height:1.25;font-family:'Nexa Bold';-inkscape-font-specification:'Nexa Bold, Bold';font-variant-ligatures:normal;font-variant-caps:normal;font-variant-numeric:normal;font-feature-settings:normal;text-align:start;letter-spacing:0px;word-spacing:0px;writing-mode:lr-tb;text-anchor:start;fill:#000000;fill-opacity:1;stroke:none;stroke-width:0.26458332"
         aria-label="ITToolKit">
        <path
           id="path844"
           style="stroke-width:0.26458332"
           d="m 62.24131,72.920403 v -5.926667 h -1.109133 v 5.926667 z"
           inkscape:connector-curvature="0" />
        <path
           id="path846"
           style="stroke-width:0.26458332"
           d="m 65.087036,72.920403 h 1.1176 v -4.910667 h 1.8796 v -1.016 c -1.718734,0 -3.166534,0 -4.8768,0 v 1.016 h 1.8796 z"
           inkscape:connector-curvature="0" />
        <path
           id="path848"
           style="stroke-width:0.26458332"
           d="m 70.296019,72.920403 h 1.1176 v -4.910667 h 1.8796 v -1.016 c -1.718733,0 -3.166533,0 -4.876799,0 v 1.016 h 1.879599 z"
           inkscape:connector-curvature="0" />
        <path
           id="path850"
           style="stroke-width:0.26458332"
           d="m 74.719588,68.661669 c -1.329267,0 -2.159,0.982134 -2.159,2.175934 0,1.202266 0.8128,2.175933 2.167466,2.175933 1.354667,0 2.175934,-0.973667 2.175934,-2.175933 0,-1.1938 -0.855134,-2.175934 -2.1844,-2.175934 z m 0.0085,0.9398 c 0.694267,0 1.134534,0.6096 1.134534,1.236134 0,0.635 -0.381,1.227666 -1.134534,1.227666 -0.753533,0 -1.134533,-0.592666 -1.134533,-1.227666 0,-0.626534 0.389467,-1.236134 1.134533,-1.236134 z"
           inkscape:connector-curvature="0" />
        <path
           id="path852"
           style="stroke-width:0.26458332"
           d="m 79.581307,68.661669 c -1.329267,0 -2.159,0.982134 -2.159,2.175934 0,1.202266 0.8128,2.175933 2.167467,2.175933 1.354666,0 2.175933,-0.973667 2.175933,-2.175933 0,-1.1938 -0.855133,-2.175934 -2.1844,-2.175934 z m 0.0085,0.9398 c 0.694266,0 1.134533,0.6096 1.134533,1.236134 0,0.635 -0.381,1.227666 -1.134533,1.227666 -0.753534,0 -1.134534,-0.592666 -1.134534,-1.227666 0,-0.626534 0.389467,-1.236134 1.134534,-1.236134 z"
           inkscape:connector-curvature="0" />
        <path
           id="path854"
           style="stroke-width:0.26458332"
           d="m 82.478759,67.002203 v 5.9182 h 1.024467 v -5.9182 z"
           inkscape:connector-curvature="0" />
        <path
           id="path856"
           style="stroke-width:0.26458332"
           d="m 89.247991,66.993736 h -1.388533 l -2.252134,2.506133 v -2.506133 h -1.1176 v 5.926667 h 1.1176 v -2.624667 l 2.480734,2.624667 h 1.380066 v -0.06773 l -2.853266,-2.988733 2.633133,-2.836333 z"
           inkscape:connector-curvature="0" />
        <path
           id="path858"
           style="stroke-width:0.26458332"
           d="m 90.986171,68.729403 v 4.191 h -1.032934 v -4.191 z m -1.126067,-1.159934 c 0,0.804334 1.2192,0.804334 1.2192,0 0,-0.804333 -1.2192,-0.804333 -1.2192,0 z"
           inkscape:connector-curvature="0" />
        <path
           id="path860"
           style="stroke-width:0.26458332"
           d="m 92.344409,67.679536 v 1.075267 h -0.778933 v 0.889 h 0.778933 v 1.8034 c 0,1.0414 0.592667,1.557866 1.4986,1.524 0.313266,-0.0085 0.5588,-0.05927 0.855133,-0.1778 l -0.287867,-0.880534 c -0.1524,0.0762 -0.338666,0.127 -0.499533,0.127 -0.321733,0 -0.541867,-0.194733 -0.541867,-0.592666 v -1.8034 h 1.159934 v -0.889 h -1.151467 v -1.185334 z"
           inkscape:connector-curvature="0" />
      </g>
      <g
         id="text837"
         style="font-style:normal;font-variant:normal;font-weight:bold;font-stretch:normal;font-size:8.46666622px;line-height:1.25;font-family:'Nexa Bold';-inkscape-font-specification:'Nexa Bold, Bold';font-variant-ligatures:normal;font-variant-caps:normal;font-variant-numeric:normal;font-feature-settings:normal;text-align:start;letter-spacing:0px;word-spacing:0px;writing-mode:lr-tb;text-anchor:start;fill:#000000;fill-opacity:1;stroke:none;stroke-width:0.26458332"
         aria-label="TM">
        <path
           id="path839"
           style="font-style:normal;font-variant:normal;font-weight:900;font-stretch:normal;font-size:5.64444447px;font-family:'SF Pro Display';-inkscape-font-specification:'SF Pro Display, Heavy';font-variant-ligatures:normal;font-variant-caps:normal;font-variant-numeric:normal;font-feature-settings:normal;text-align:start;writing-mode:lr-tb;text-anchor:start;stroke-width:0.26458332"
           d="m 121.74125,50.665478 v -3.048221 h 1.0473 V 46.68846 h -3.26319 v 0.928797 h 1.04731 v 3.048221 z"
           inkscape:connector-curvature="0" />
        <path
           id="path841"
           style="font-style:normal;font-variant:normal;font-weight:900;font-stretch:normal;font-size:5.64444447px;font-family:'SF Pro Display';-inkscape-font-specification:'SF Pro Display, Heavy';font-variant-ligatures:normal;font-variant-caps:normal;font-variant-numeric:normal;font-feature-settings:normal;text-align:start;writing-mode:lr-tb;text-anchor:start;stroke-width:0.26458332"
           d="M 127.69437,50.665478 V 46.68846 h -1.35048 l -0.88745,2.367469 h -0.0221 l -0.89021,-2.367469 h -1.35048 v 3.977018 h 1.01975 v -2.30408 h 0.022 l 0.89573,2.30408 h 0.62563 l 0.89572,-2.30408 h 0.0221 v 2.30408 z"
           inkscape:connector-curvature="0" />
      </g>
    </g>
  </g>
</svg>
